<?xml version="1.0" encoding="UTF-8" standalone="no"?>
<svg
   xmlns:dc="http://purl.org/dc/elements/1.1/"
   xmlns:cc="http://creativecommons.org/ns#"
   xmlns:rdf="http://www.w3.org/1999/02/22-rdf-syntax-ns#"
   xmlns:svg="http://www.w3.org/2000/svg"
   xmlns="http://www.w3.org/2000/svg"
   id="svg8"
   version="1.1"
   viewBox="0 0 67.733332 67.733335"
   height="256"
   width="256">
  <defs
     id="defs2" />
  <metadata
     id="metadata5">
    <rdf:RDF>
      <cc:Work
         rdf:about="">
        <dc:format>image/svg+xml</dc:format>
        <dc:type
           rdf:resource="http://purl.org/dc/dcmitype/StillImage" />
        <dc:title></dc:title>
      </cc:Work>
    </rdf:RDF>
  </metadata>
  <g
     transform="translate(0,-229.26665)"
     id="layer1">
    <path
       id="path4620-3"
       d="m 21.329342,285.55007 c 4.431435,5.51107 -0.485271,9.18564 -3.450137,6.90688 C 8.9199991,285.57102 3.9060695,274.80509 3.3383485,262.2235 2.8862466,252.20406 8.7393846,230.48224 32.420058,230.69432 c 18.345056,0.1643 30.463489,18.62207 32.963751,30.41872 3.455298,16.30265 -2.302661,27.98722 -9.820756,33.86337 -2.386019,1.86493 -4.822659,-1.54715 -2.555449,-2.7714 6.267161,-3.38412 14.741621,-14.83068 10.919049,-30.51098 -2.997873,-12.29736 -13.622295,-27.96312 -31.362625,-27.90438 -13.707684,0.0454 -23.2180846,10.96414 -22.243186,28.07393 0.639536,11.22403 5.928697,17.36908 11.0085,23.68649 z"
       style="fill:#1b75b7;fill-opacity:1;stroke:none;stroke-width:0.28504378px;stroke-linecap:butt;stroke-linejoin:miter;stroke-opacity:1" />
    <path
       id="path4622-1"
       d="m 23.134068,266.54257 c -2.907677,1.17197 -5.244362,1.29735 -3.599221,-3.16732 l 3.450885,-9.36521 c 0.41661,-1.13061 1.269087,-3.75544 4.179465,-1.00853 l 6.485834,6.12155 c 1.001687,0.94543 3.769476,2.73183 0.729325,3.89588 l -2.489638,0.95327 c 3.761178,7.76777 10.486329,15.56252 19.389258,13.08008 5.493213,-1.5317 10.808131,-9.83217 3.239301,-23.53891 -2.825725,-5.11723 -9.168858,-10.38312 -16.880349,-9.53794 -4.207372,0.46113 -5.913396,-4.76523 -0.971785,-4.82295 6.879855,-0.0804 16.177453,5.74284 20.410137,13.16697 8.597487,15.08002 3.808128,27.06866 -3.091713,31.05873 -11.115362,6.42783 -24.741004,-2.18193 -30.851499,-16.83562 z"
       style="fill:#939597;fill-opacity:1;stroke:none;stroke-width:0.28504378px;stroke-linecap:butt;stroke-linejoin:miter;stroke-opacity:1" />
    <path
       id="path4624-5"
       d="m 43.793598,260.53186 c 2.061543,3.60644 5.490288,4.7691 7.306419,1.9076 0.636121,-1.00229 1.917966,-0.33552 1.367703,1.47567 -1.492704,4.91325 -8.091931,3.40965 -11.049612,-1.90759 -4.645226,-8.35105 1.959637,-13.79803 7.342415,-8.63812 0.365503,0.35037 0.692924,1.78949 -1.223736,0.8998 -4.681984,-2.17333 -5.210665,3.69546 -3.743189,6.26264 z"
       style="fill:#1b75b7;fill-opacity:1;stroke:none;stroke-width:0.28504378px;stroke-linecap:butt;stroke-linejoin:miter;stroke-opacity:1" />
  </g>
</svg>
